# File created by Blade
# Date/Time:  Thu Jan 22 16:25:48 2015
# Frame Rate: 120.000 fps
#------------------------------------------------------
:FULLY-SPECIFIED
:DEGREES
816
root 3.509924 39.938179 8.132114 66.766482 17.875795 52.339016
RightUpLeg -29.433304 -25.007170 -43.458318
RightLeg -8.247835 -0.000000 0.000000
RightFoot -4.694633 -27.626006 15.130213
RightToeBase 12.378162 -0.000000 -0.000000
LeftUpLeg 17.847432 -28.691207 11.547084
LeftLeg 131.098243 -0.000000 -0.000000
LeftFoot 18.202076 19.750026 -31.116338
LeftToeBase 5.148782 -0.000000 -0.000000
Spine 13.393431 -7.003893 -6.430612
RightShoulder -13.938391 -5.124699 -47.322411
RightArm 48.768012 62.046278 26.563753
RightForeArm -1.966402 -0.000000 14.406297
RightHand 7.877016 -0.000000 -13.272399
RightHandThumb1 -24.326973 -0.000000 -32.862282
LeftShoulder -35.152900 36.381118 -13.112607
LeftArm 22.811777 -22.481477 -81.818320
LeftForeArm 55.199125 -0.000000 11.546477
LeftHand -16.894900 -0.000000 -16.637365
LeftHandThumb1 -26.253704 0.000000 33.147579
Head -14.857062 -23.631336 -12.249216
817
root 3.500943 39.940091 8.121586 66.783428 17.971448 52.441525
RightUpLeg -29.295606 -25.046027 -43.497004
RightLeg -8.280819 -0.000000 0.000000
RightFoot -4.692302 -27.653628 15.179553
RightToeBase 12.335544 -0.000000 -0.000000
LeftUpLeg 17.685830 -28.746852 11.593625
LeftLeg 131.250941 -0.000000 -0.000000
LeftFoot 18.210069 19.671944 -31.051383
LeftToeBase 5.060842 -0.000000 -0.000000
Spine 13.384695 -7.111907 -6.436278
RightShoulder -13.861654 -5.038764 -47.344544
RightArm 48.633979 61.842342 26.541450
RightForeArm -2.193102 0.000000 14.554436
RightHand 7.819597 -0.000000 -13.370772
RightHandThumb1 -24.326973 -0.000000 -32.862282
LeftShoulder -35.130448 36.388841 -13.047006
LeftArm 22.822584 -22.390360 -81.899123
LeftForeArm 55.136115 0.000000 11.518915
LeftHand -16.841526 0.000000 -16.714948
LeftHandThumb1 -26.253704 0.000000 33.147579
Head -14.826768 -23.743912 -12.271641
818
root 3.490785 39.942124 8.110314 66.806737 18.081198 52.559142
RightUpLeg -29.150793 -25.098396 -43.531473
RightLeg -8.306822 -0.000000 0.000000
RightFoot -4.718354 -27.677075 15.239584
RightToeBase 12.355247 -0.000000 -0.000000
LeftUpLeg 17.486715 -28.807521 11.681293
LeftLeg 131.419990 -0.000000 -0.000000
LeftFoot 18.269851 19.544014 -30.892880
LeftToeBase 4.960715 -0.000000 -0.000000
Spine 13.392085 -7.230690 -6.430936
RightShoulder -13.806082 -4.964354 -47.370942
RightArm 48.423549 61.623298 26.461588
RightForeArm -2.350368 0.000000 14.732712
RightHand 7.889417 -0.000000 -13.478208
RightHandThumb1 -24.326973 -0.000000 -32.862282
LeftShoulder -35.097531 36.413624 -12.998884
LeftArm 22.847607 -22.263495 -81.979964
LeftForeArm 54.995357 0.000000 11.502661
LeftHand -16.890837 -0.000000 -16.710908
LeftHandThumb1 -26.253704 0.000000 33.147579
Head -14.846146 -23.664094 -12.246474
819
root 3.482307 39.942452 8.099828 66.807885 18.187780 52.656099
RightUpLeg -28.997937 -25.118483 -43.562732
RightLeg -8.345816 -0.000000 0.000000
RightFoot -4.711422 -27.742896 15.251613
RightToeBase 12.443102 -0.000000 -0.000000
LeftUpLeg 17.311633 -28.829623 11.746586
LeftLeg 131.594181 -0.000000 -0.000000
LeftFoot 18.304677 19.426130 -30.848919
LeftToeBase 5.067061 -0.000000 -0.000000
Spine 13.391787 -7.308988 -6.420414
RightShoulder -13.684728 -4.851061 -47.405549
RightArm 47.412459 61.159177 25.552268
RightForeArm -2.041856 0.000000 15.004029
RightHand 7.663537 -0.000000 -13.455068
RightHandThumb1 -24.326973 -0.000000 -32.862282
LeftShoulder -35.039350 36.463310 -12.954451
LeftArm 22.890838 -22.212656 -82.103642
LeftForeArm 54.896320 -0.000000 11.482582
LeftHand -16.870245 -0.000000 -16.845174
LeftHandThumb1 -26.253704 0.000000 33.147579
Head -14.844800 -23.712701 -12.235224
820
root 3.475684 39.942457 8.091115 66.792623 18.306513 52.759539
RightUpLeg -28.815335 -25.138535 -43.590407
RightLeg -8.393610 -0.000000 0.000000
RightFoot -4.720004 -27.786231 15.289368
RightToeBase 12.449149 -0.000000 -0.000000
LeftUpLeg 17.126827 -28.831228 11.832481
LeftLeg 131.768750 -0.000000 -0.000000
LeftFoot 18.370024 19.302811 -30.753028
LeftToeBase 4.976025 -0.000000 -0.000000
Spine 13.432040 -7.368056 -6.394901
RightShoulder -13.652337 -4.725470 -47.459800
RightArm 46.997075 60.814668 25.326338
RightForeArm -2.108342 -0.000000 15.270246
RightHand 7.571309 -0.000000 -13.463283
RightHandThumb1 -24.326973 -0.000000 -32.862282
LeftShoulder -34.991271 36.457786 -12.914802
LeftArm 22.928206 -22.106252 -82.180709
LeftForeArm 54.672073 -0.000000 11.445592
LeftHand -16.918553 -0.000000 -16.907730
LeftHandThumb1 -26.253704 0.000000 33.147579
Head -14.867320 -23.679460 -12.214808
821
root 3.468966 39.941856 8.081305 66.791469 18.436007 52.863829
RightUpLeg -28.646705 -25.174104 -43.600335
RightLeg -8.438636 -0.000000 0.000000
RightFoot -4.822875 -27.805961 15.438702
RightToeBase 12.615353 -0.000000 -0.000000
LeftUpLeg 16.917283 -28.797279 11.934628
LeftLeg 131.949491 -0.000000 -0.000000
LeftFoot 18.399972 19.232075 -30.640073
LeftToeBase 4.881671 -0.000000 -0.000000
Spine 13.431244 -7.435465 -6.355769
RightShoulder -13.564757 -4.625129 -47.513841
RightArm 46.531598 60.481539 25.073199
RightForeArm -2.299271 0.000000 15.548251
RightHand 7.591916 -0.000000 -13.515619
RightHandThumb1 -24.326973 -0.000000 -32.862282
LeftShoulder -34.929459 36.441567 -12.851531
LeftArm 22.928497 -22.033412 -82.290119
LeftForeArm 54.592279 -0.000000 11.406646
LeftHand -16.919559 0.000000 -17.010919
LeftHandThumb1 -26.253704 0.000000 33.147579
Head -14.838176 -23.762714 -12.235030
822
root 3.460907 39.940724 8.071147 66.785785 18.538929 52.949990
RightUpLeg -28.511301 -25.195844 -43.613961
RightLeg -8.474292 -0.000000 0.000000
RightFoot -4.724551 -27.887978 15.297662
RightToeBase 12.513845 -0.000000 -0.000000
LeftUpLeg 16.696168 -28.727247 12.019309
LeftLeg 132.130362 -0.000000 -0.000000
LeftFoot 18.407266 19.138359 -30.662636
LeftToeBase 4.907335 -0.000000 -0.000000
Spine 13.435827 -7.447436 -6.342546
RightShoulder -13.507461 -4.530290 -47.538388
RightArm 46.183725 60.195376 24.914209
RightForeArm -2.442907 -0.000000 15.801897
RightHand 7.530481 0.000000 -13.446704
RightHandThumb1 -24.326973 -0.000000 -32.862282
LeftShoulder -34.907482 36.477588 -12.840850
LeftArm 23.043071 -21.967414 -82.427260
LeftForeArm 54.427956 0.000000 11.334261
LeftHand -16.950747 -0.000000 -17.039074
LeftHandThumb1 -26.253704 0.000000 33.147579
Head -14.831325 -23.736097 -12.199093
823
root 3.454385 39.939845 8.060909 66.777581 18.637112 53.020592
RightUpLeg -28.396898 -25.228028 -43.605993
RightLeg -8.505366 -0.000000 0.000000
RightFoot -4.803745 -27.902845 15.415874
RightToeBase 12.645299 -0.000000 -0.000000
LeftUpLeg 16.469813 -28.612203 12.093323
LeftLeg 132.302280 -0.000000 -0.000000
LeftFoot 18.408876 19.085354 -30.644961
LeftToeBase 4.987872 -0.000000 -0.000000
Spine 13.411085 -7.462205 -6.326375
RightShoulder -13.408745 -4.406702 -47.578753
RightArm 45.562958 59.732241 24.459317
RightForeArm -2.556277 0.000000 16.065247
RightHand 7.412214 -0.000000 -13.615809
RightHandThumb1 -24.326973 -0.000000 -32.862282
LeftShoulder -34.869070 36.460467 -12.803885
LeftArm 23.039389 -21.833782 -82.512768
LeftForeArm 54.280198 -0.000000 11.291610
LeftHand -17.081156 -0.000000 -17.014179
LeftHandThumb1 -26.253704 0.000000 33.147579
Head -14.777068 -23.730644 -12.191891
